#!OML:ASF H:\LiuWeirdWalks\Patient Classification 1\Patient 1\Session 1\male.ASF
:FULLY-SPECIFIED
:DEGREES
1070
root 0.341852 17.9576 -1.21467 -2.42712 8.98233 -8.87763
lowerback 4.11584 2.21637 6.02369
upperback -0.22442 3.36676 4.12028
thorax -2.44664 1.63053 0.677048
lowerneck -15.8943 -0.288398 4.41426
upperneck 23.7204 -0.379181 -4.55584
head 10.1631 -0.297512 -2.40551
rclavicle -1.64339e-014 7.55382e-015
rhumerus -39.4612 -1.03527 -80.7088
rradius 40.6526
rwrist -11.003
rhand -16.0179 -4.44092
rfingers 7.12502
rthumb 10.1828 -34.1745
lclavicle -1.64339e-014 7.55382e-015
lhumerus -42.3241 -3.51013 87.4802
lradius 37.5015
lwrist 13.2646
lhand -12.0498 0.0592011
lfingers 7.12502
lthumb 14.0091 29.5671
rfemur 6.73899 -4.67365 36.4861
rtibia 12.0047
rfoot -10.0277 -19.5688
rtoes -0.940161
lfemur -32.7842 0.500553 -8.2308
ltibia 32.0868
lfoot -7.66448 6.46315
ltoes -18.5425
1071
root 0.346639 17.9556 -1.17862 -2.40592 8.89788 -8.8609
lowerback 4.02332 2.28891 6.01556
upperback -0.221718 3.45288 4.08041
thorax -2.38708 1.67459 0.639893
lowerneck -15.8404 -0.296582 4.33781
upperneck 23.7084 -0.384619 -4.48914
head 10.1487 -0.298485 -2.36866
rclavicle 7.04397e-014 9.54166e-015
rhumerus -39.327 -1.07007 -80.7874
rradius 40.4835
rwrist -10.8799
rhand -15.9752 -4.44356
rfingers 7.12502
rthumb 10.224 -34.1751
lclavicle 7.04397e-014 9.54166e-015
lhumerus -42.4136 -3.33486 87.3153
lradius 37.5111
lwrist 13.2252
lhand -12.0828 0.0948837
lfingers 7.12502
lthumb 13.9772 29.605
rfemur 6.95895 -4.64013 36.4556
rtibia 11.8154
rfoot -10.0232 -19.5064
rtoes -1.01085
lfemur -32.5799 0.260698 -8.23978
ltibia 31.3326
lfoot -7.77653 6.68305
ltoes -18.5175
1072
root 0.351804 17.9535 -1.14228 -2.38165 8.7992 -8.84355
lowerback 3.93857 2.36077 6.00887
upperback -0.228202 3.53968 4.043
thorax -2.34139 1.71856 0.60417
lowerneck -15.7829 -0.305082 4.2567
upperneck 23.7082 -0.385511 -4.43523
head 10.1381 -0.299182 -2.3352
rclavicle -5.10255e-014 8.34896e-015
rhumerus -39.2043 -1.10382 -80.8641
rradius 40.3104
rwrist -10.737
rhand -15.932 -4.4394
rfingers 7.12502
rthumb 10.2658 -34.1689
lclavicle -5.10255e-014 8.34896e-015
lhumerus -42.5253 -3.15283 87.1513
lradius 37.5263
lwrist 13.1939
lhand -12.1247 0.106335
lfingers 7.12502
lthumb 13.9368 29.6193
rfemur 7.17647 -4.59993 36.422
rtibia 11.6311
rfoot -10.014 -19.436
rtoes -1.08948
lfemur -32.3753 0.0243883 -8.24682
ltibia 30.6003
lfoot -7.86571 6.93771
ltoes -18.5091
1073
root 0.356904 17.9509 -1.10616 -2.35389 8.70517 -8.83721
lowerback 3.85512 2.42741 6.01239
upperback -0.239007 3.62057 4.00903
thorax -2.30062 1.75934 0.566749
lowerneck -15.7536 -0.317094 4.15919
upperneck 23.7559 -0.388294 -4.376
head 10.1501 -0.301501 -2.29862
rclavicle 4.75344e-014 6.75868e-014
rhumerus -39.0818 -1.13874 -80.9452
rradius 40.1378
rwrist -10.5956
rhand -15.9055 -4.42914
rfingers 7.12502
rthumb 10.2913 -34.1574
lclavicle 4.75344e-014 6.75868e-014
lhumerus -42.6447 -2.97811 86.9883
lradius 37.5433
lwrist 13.1749
lhand -12.1841 0.118957
lfingers 7.12502
lthumb 13.8796 29.6358
rfemur 7.38396 -4.55575 36.4031
rtibia 11.4512
rfoot -9.99647 -19.3737
rtoes -1.17373
lfemur -32.1847 -0.212811 -8.24205
ltibia 29.8966
lfoot -7.95732 7.21438
ltoes -18.4798
1074
root 0.362513 17.9485 -1.06964 -2.31891 8.61248 -8.83376
lowerback 3.77361 2.49098 6.02212
upperback -0.261138 3.69864 3.97441
thorax -2.27226 1.7982 0.525234
lowerneck -15.7091 -0.328492 4.08202
upperneck 23.8091 -0.389512 -4.33798
head 10.1611 -0.303605 -2.27277
rclavicle -1.96113e-014 -1.15295e-014
rhumerus -38.9579 -1.17231 -81.0308
rradius 39.948
rwrist -10.461
rhand -15.8901 -4.42117
rfingers 7.12502
rthumb 10.3062 -34.1486
lclavicle -1.96113e-014 -1.15295e-014
lhumerus -42.7853 -2.80842 86.8252
lradius 37.5657
lwrist 13.1684
lhand -12.2417 0.120931
lfingers 7.12502
lthumb 13.8241 29.6416
rfemur 7.58527 -4.51756 36.3833
rtibia 11.2711
rfoot -9.97825 -19.3045
rtoes -1.25651
lfemur -32.0072 -0.434605 -8.24138
ltibia 29.2252
lfoot -8.05796 7.49936
ltoes -18.4753
1075
root 0.368055 17.9458 -1.03322 -2.27879 8.51894 -8.84225
lowerback 3.6952 2.55453 6.04227
upperback -0.287812 3.77782 3.94263
thorax -2.24973 1.83733 0.480788
lowerneck -15.6601 -0.328859 4.06341
upperneck 23.8493 -0.376457 -4.35671
head 10.1668 -0.300591 -2.27484
rclavicle -2.16629e-014 5.56597e-015
rhumerus -38.8299 -1.20623 -81.12
rradius 39.7572
rwrist -10.3475
rhand -15.8941 -4.41353
rfingers 7.12502
rthumb 10.3023 -34.1412
lclavicle -2.16629e-014 5.56597e-015
lhumerus -42.9326 -2.64794 86.6646
lradius 37.5916
lwrist 13.1657
lhand -12.3008 0.127229
lfingers 7.12502
lthumb 13.7671 29.6517
rfemur 7.77923 -4.47017 36.3789
rtibia 11.0893
rfoot -9.95771 -19.2407
rtoes -1.33363
lfemur -31.8481 -0.630399 -8.2347
ltibia 28.5877
lfoot -8.16575 7.77744
ltoes -18.5089
1076
root 0.374046 17.9435 -0.996299 -2.2311 8.43677 -8.84254
lowerback 3.61212 2.61583 6.05752
upperback -0.319835 3.85363 3.90699
thorax -2.23013 1.87467 0.435509
lowerneck -15.6368 -0.320549 4.09074
upperneck 23.9008 -0.354404 -4.41351
head 10.1815 -0.293902 -2.29758
rclavicle -2.72017e-014 -6.75868e-015
rhumerus -38.696 -1.252 -81.2077
rradius 39.555
rwrist -10.2329
rhand -15.9041 -4.39094
rfingers 7.12502
rthumb 10.2927 -34.1191
lclavicle -2.72017e-014 -6.75868e-015
lhumerus -43.0729 -2.47945 86.5004
lradius 37.593
lwrist 13.1526
lhand -12.3435 0.09789
lfingers 7.12502
lthumb 13.726 29.6252
rfemur 7.97115 -4.44013 36.3612
rtibia 10.9009
rfoot -9.93655 -19.1672
rtoes -1.41358
lfemur -31.7029 -0.80281 -8.25138
ltibia 27.9832
lfoot -8.2865 8.03223
ltoes -18.5633
1077
root 0.380077 17.941 -0.959209 -2.17672 8.35686 -8.84264
lowerback 3.52681 2.67755 6.072
upperback -0.348003 3.92949 3.87166
thorax -2.20522 1.91223 0.391386
lowerneck -15.6345 -0.312098 4.11105
upperneck 23.9693 -0.33252 -4.46286
head 10.2066 -0.287114 -2.31711
rclavicle 3.2273e-014 -2.78299e-014
rhumerus -38.5511 -1.30129 -81.294
rradius 39.3605
rwrist -10.1298
rhand -15.9173 -4.38585
rfingers 7.12502
rthumb 10.28 -34.1146
lclavicle 3.2273e-014 -2.78299e-014
lhumerus -43.1922 -2.30878 86.3384
lradius 37.583
lwrist 13.1475
lhand -12.3638 0.0897676
lfingers 7.12502
lthumb 13.7064 29.6184
rfemur 8.15943 -4.40836 36.3439
rtibia 10.7071
rfoot -9.9142 -19.095
rtoes -1.49063
lfemur -31.5741 -0.964561 -8.27228
ltibia 27.4125
lfoot -8.42055 8.27448
ltoes -18.5904
1078
root 0.386328 17.9384 -0.921577 -2.11993 8.28354 -8.83484
lowerback 3.44837 2.73891 6.07925
upperback -0.389132 4.00604 3.83335
thorax -2.19771 1.94963 0.347582
lowerneck -15.6246 -0.30923 4.12296
upperneck 24.0624 -0.318619 -4.49898
head 10.2388 -0.282943 -2.33199
rclavicle 5.93819e-014 4.7112e-014
rhumerus -38.4363 -1.35707 -81.3777
rradius 39.1818
rwrist -10.0543
rhand -15.9268 -4.37667
rfingers 7.12502
rthumb 10.2708 -34.1059
lclavicle 5.93819e-014 4.7112e-014
lhumerus -43.3354 -2.14928 86.183
lradius 37.5772
lwrist 13.1616
lhand -12.3703 0.1212
lfingers 7.12502
lthumb 13.7001 29.6502
rfemur 8.3508 -4.38137 36.3174
rtibia 10.5074
rfoot -9.88821 -19.0242
rtoes -1.57594
lfemur -31.4527 -1.12376 -8.30588
ltibia 26.8751
lfoot -8.55004 8.4967
ltoes -18.6324
1079
root 0.392319 17.9355 -0.883832 -2.06018 8.21148 -8.83777
lowerback 3.36565 2.79965 6.08951
upperback -0.422857 4.08111 3.79984
thorax -2.18021 1.98664 0.307755
lowerneck -15.6468 -0.298531 4.14987
upperneck 24.1439 -0.297939 -4.54056
head 10.2733 -0.275332 -2.35062
rclavicle 1.52606e-014 -2.28602e-014
rhumerus -38.317 -1.42292 -81.4574
rradius 39.0271
rwrist -9.9898
rhand -15.9272 -4.35522
rfingers 7.12502
rthumb 10.2703 -34.0845
lclavicle 1.52606e-014 -2.28602e-014
lhumerus -43.4538 -1.99026 86.0311
lradius 37.5594
lwrist 13.1928
lhand -12.38 0.172751
lfingers 7.12502
lthumb 13.6908 29.7024
rfemur 8.53965 -4.34574 36.3071
rtibia 10.3026
rfoot -9.85473 -18.9638
rtoes -1.66537
lfemur -31.3453 -1.27385 -8.32723
ltibia 26.3735
lfoot -8.67454 8.69613
ltoes -18.6123
1080
root 0.398043 17.9321 -0.846237 -2.00233 8.12886 -8.85037
lowerback 3.29881 2.86328 6.10512
upperback -0.461257 4.16214 3.76979
thorax -2.17604 2.02617 0.26744
lowerneck -15.6721 -0.290797 4.17763
upperneck 24.2139 -0.282027 -4.58253
head 10.3041 -0.27002 -2.36999
rclavicle -4.98243e-015 -8.54774e-015
rhumerus -38.2198 -1.49928 -81.5337
rradius 38.9011
rwrist -9.93404
rhand -15.9122 -4.34515
rfingers 7.12502
rthumb 10.2849 -34.0737
lclavicle -4.98243e-015 -8.54774e-015
lhumerus -43.5732 -1.84222 85.8862
lradius 37.5309
lwrist 13.2399
lhand -12.4096 0.185699
lfingers 7.12502
lthumb 13.6623 29.7173
rfemur 8.73382 -4.28978 36.3125
rtibia 10.0878
rfoot -9.81161 -18.9149
rtoes -1.75044
lfemur -31.2453 -1.40638 -8.33585
ltibia 25.9103
lfoot -8.78569 8.87159
ltoes -18.5894
1081
root 0.403888 17.9286 -0.808275 -1.94816 8.043 -8.86211
lowerback 3.23294 2.92624 6.12004
upperback -0.494097 4.24191 3.73898
thorax -2.16658 2.06527 0.227048
lowerneck -15.6918 -0.279614 4.21616
upperneck 24.2904 -0.264004 -4.62346
head 10.3363 -0.262513 -2.39064
rclavicle -1.80917e-014 1.15295e-014
rhumerus -38.1245 -1.58671 -81.608
rradius 38.7921
rwrist -9.87371
rhand -15.8832 -4.33557
rfingers 7.12502
rthumb 10.3129 -34.0627
lclavicle -1.80917e-014 1.15295e-014
lhumerus -43.6864 -1.6974 85.7406
lradius 37.4949
lwrist 13.2821
lhand -12.4551 0.177945
lfingers 7.12502
lthumb 13.6184 29.7125
rfemur 8.94039 -4.23547 36.3157
rtibia 9.86109
rfoot -9.7656 -18.8641
rtoes -1.83417
lfemur -31.1489 -1.53163 -8.34502
ltibia 25.4902
lfoot -8.89884 9.02112
ltoes -18.5454
